<svg width="160" height="206" viewBox="0 0 160 206" fill="none" xmlns="http://www.w3.org/2000/svg">
<path d="M0 5C0 2.23858 2.23858 0 5 0C7.76142 0 10 2.23858 10 5C10 7.76142 7.76142 10 5 10C2.23858 10 0 7.76142 0 5Z" fill="#00C2FF" fill-opacity="0.062"/>
<path d="M30 5C30 2.23858 32.2386 0 35 0C37.7614 0 40 2.23858 40 5C40 7.76142 37.7614 10 35 10C32.2386 10 30 7.76142 30 5Z" fill="#00C2FF" fill-opacity="0.062"/>
<path d="M0 33C0 30.2386 2.23858 28 5 28C7.76142 28 10 30.2386 10 33C10 35.7614 7.76142 38 5 38C2.23858 38 0 35.7614 0 33Z" fill="#00C2FF" fill-opacity="0.062"/>
<path d="M30 33C30 30.2386 32.2386 28 35 28C37.7614 28 40 30.2386 40 33C40 35.7614 37.7614 38 35 38C32.2386 38 30 35.7614 30 33Z" fill="#00C2FF" fill-opacity="0.062"/>
<path d="M0 61C0 58.2386 2.23858 56 5 56C7.76142 56 10 58.2386 10 61C10 63.7614 7.76142 66 5 66C2.23858 66 0 63.7614 0 61Z" fill="#00C2FF" fill-opacity="0.062"/>
<path d="M30 61C30 58.2386 32.2386 56 35 56C37.7614 56 40 58.2386 40 61C40 63.7614 37.7614 66 35 66C32.2386 66 30 63.7614 30 61Z" fill="#00C2FF" fill-opacity="0.062"/>
<path d="M0 89C0 86.2386 2.23858 84 5 84C7.76142 84 10 86.2386 10 89C10 91.7614 7.76142 94 5 94C2.23858 94 0 91.7614 0 89Z" fill="#00C2FF" fill-opacity="0.062"/>
<path d="M30 89C30 86.2386 32.2386 84 35 84C37.7614 84 40 86.2386 40 89C40 91.7614 37.7614 94 35 94C32.2386 94 30 91.7614 30 89Z" fill="#00C2FF" fill-opacity="0.062"/>
<path d="M60 5C60 2.23858 62.2386 0 65 0C67.7614 0 70 2.23858 70 5C70 7.76142 67.7614 10 65 10C62.2386 10 60 7.76142 60 5Z" fill="#00C2FF" fill-opacity="0.062"/>
<path d="M90 5C90 2.23858 92.2386 0 95 0C97.7614 0 100 2.23858 100 5C100 7.76142 97.7614 10 95 10C92.2386 10 90 7.76142 90 5Z" fill="#00C2FF" fill-opacity="0.062"/>
<path d="M60 33C60 30.2386 62.2386 28 65 28C67.7614 28 70 30.2386 70 33C70 35.7614 67.7614 38 65 38C62.2386 38 60 35.7614 60 33Z" fill="#00C2FF" fill-opacity="0.062"/>
<path d="M90 33C90 30.2386 92.2386 28 95 28C97.7614 28 100 30.2386 100 33C100 35.7614 97.7614 38 95 38C92.2386 38 90 35.7614 90 33Z" fill="#00C2FF" fill-opacity="0.062"/>
<path d="M60 61C60 58.2386 62.2386 56 65 56C67.7614 56 70 58.2386 70 61C70 63.7614 67.7614 66 65 66C62.2386 66 60 63.7614 60 61Z" fill="#00C2FF" fill-opacity="0.062"/>
<path d="M90 61C90 58.2386 92.2386 56 95 56C97.7614 56 100 58.2386 100 61C100 63.7614 97.7614 66 95 66C92.2386 66 90 63.7614 90 61Z" fill="#00C2FF" fill-opacity="0.062"/>
<path d="M60 89C60 86.2386 62.2386 84 65 84C67.7614 84 70 86.2386 70 89C70 91.7614 67.7614 94 65 94C62.2386 94 60 91.7614 60 89Z" fill="#00C2FF" fill-opacity="0.062"/>
<path d="M90 89C90 86.2386 92.2386 84 95 84C97.7614 84 100 86.2386 100 89C100 91.7614 97.7614 94 95 94C92.2386 94 90 91.7614 90 89Z" fill="#00C2FF" fill-opacity="0.062"/>
<path d="M0 117C0 114.239 2.23858 112 5 112C7.76142 112 10 114.239 10 117C10 119.761 7.76142 122 5 122C2.23858 122 0 119.761 0 117Z" fill="#00C2FF" fill-opacity="0.062"/>
<path d="M30 117C30 114.239 32.2386 112 35 112C37.7614 112 40 114.239 40 117C40 119.761 37.7614 122 35 122C32.2386 122 30 119.761 30 117Z" fill="#00C2FF" fill-opacity="0.062"/>
<path d="M0 145C0 142.239 2.23858 140 5 140C7.76142 140 10 142.239 10 145C10 147.761 7.76142 150 5 150C2.23858 150 0 147.761 0 145Z" fill="#00C2FF" fill-opacity="0.062"/>
<path d="M30 145C30 142.239 32.2386 140 35 140C37.7614 140 40 142.239 40 145C40 147.761 37.7614 150 35 150C32.2386 150 30 147.761 30 145Z" fill="#00C2FF" fill-opacity="0.062"/>
<path d="M0 173C0 170.239 2.23858 168 5 168C7.76142 168 10 170.239 10 173C10 175.761 7.76142 178 5 178C2.23858 178 0 175.761 0 173Z" fill="#00C2FF" fill-opacity="0.062"/>
<path d="M30 173C30 170.239 32.2386 168 35 168C37.7614 168 40 170.239 40 173C40 175.761 37.7614 178 35 178C32.2386 178 30 175.761 30 173Z" fill="#00C2FF" fill-opacity="0.062"/>
<path d="M0 201C0 198.239 2.23858 196 5 196C7.76142 196 10 198.239 10 201C10 203.761 7.76142 206 5 206C2.23858 206 0 203.761 0 201Z" fill="#00C2FF" fill-opacity="0.062"/>
<path d="M30 201C30 198.239 32.2386 196 35 196C37.7614 196 40 198.239 40 201C40 203.761 37.7614 206 35 206C32.2386 206 30 203.761 30 201Z" fill="#00C2FF" fill-opacity="0.062"/>
<path d="M60 117C60 114.239 62.2386 112 65 112C67.7614 112 70 114.239 70 117C70 119.761 67.7614 122 65 122C62.2386 122 60 119.761 60 117Z" fill="#00C2FF" fill-opacity="0.062"/>
<path d="M90 117C90 114.239 92.2386 112 95 112C97.7614 112 100 114.239 100 117C100 119.761 97.7614 122 95 122C92.2386 122 90 119.761 90 117Z" fill="#00C2FF" fill-opacity="0.062"/>
<path d="M60 145C60 142.239 62.2386 140 65 140C67.7614 140 70 142.239 70 145C70 147.761 67.7614 150 65 150C62.2386 150 60 147.761 60 145Z" fill="#00C2FF" fill-opacity="0.062"/>
<path d="M90 145C90 142.239 92.2386 140 95 140C97.7614 140 100 142.239 100 145C100 147.761 97.7614 150 95 150C92.2386 150 90 147.761 90 145Z" fill="#00C2FF" fill-opacity="0.062"/>
<path d="M60 173C60 170.239 62.2386 168 65 168C67.7614 168 70 170.239 70 173C70 175.761 67.7614 178 65 178C62.2386 178 60 175.761 60 173Z" fill="#00C2FF" fill-opacity="0.062"/>
<path d="M90 173C90 170.239 92.2386 168 95 168C97.7614 168 100 170.239 100 173C100 175.761 97.7614 178 95 178C92.2386 178 90 175.761 90 173Z" fill="#00C2FF" fill-opacity="0.062"/>
<path d="M60 201C60 198.239 62.2386 196 65 196C67.7614 196 70 198.239 70 201C70 203.761 67.7614 206 65 206C62.2386 206 60 203.761 60 201Z" fill="#00C2FF" fill-opacity="0.062"/>
<path d="M90 201C90 198.239 92.2386 196 95 196C97.7614 196 100 198.239 100 201C100 203.761 97.7614 206 95 206C92.2386 206 90 203.761 90 201Z" fill="#00C2FF" fill-opacity="0.062"/>
<path d="M120 5C120 2.23858 122.239 0 125 0C127.761 0 130 2.23858 130 5C130 7.76142 127.761 10 125 10C122.239 10 120 7.76142 120 5Z" fill="#00C2FF" fill-opacity="0.062"/>
<path d="M150 5C150 2.23858 152.239 0 155 0C157.761 0 160 2.23858 160 5C160 7.76142 157.761 10 155 10C152.239 10 150 7.76142 150 5Z" fill="#00C2FF" fill-opacity="0.062"/>
<path d="M120 33C120 30.2386 122.239 28 125 28C127.761 28 130 30.2386 130 33C130 35.7614 127.761 38 125 38C122.239 38 120 35.7614 120 33Z" fill="#00C2FF" fill-opacity="0.062"/>
<path d="M150 33C150 30.2386 152.239 28 155 28C157.761 28 160 30.2386 160 33C160 35.7614 157.761 38 155 38C152.239 38 150 35.7614 150 33Z" fill="#00C2FF" fill-opacity="0.062"/>
<path d="M120 61C120 58.2386 122.239 56 125 56C127.761 56 130 58.2386 130 61C130 63.7614 127.761 66 125 66C122.239 66 120 63.7614 120 61Z" fill="#00C2FF" fill-opacity="0.062"/>
<path d="M150 61C150 58.2386 152.239 56 155 56C157.761 56 160 58.2386 160 61C160 63.7614 157.761 66 155 66C152.239 66 150 63.7614 150 61Z" fill="#00C2FF" fill-opacity="0.062"/>
<path d="M120 89C120 86.2386 122.239 84 125 84C127.761 84 130 86.2386 130 89C130 91.7614 127.761 94 125 94C122.239 94 120 91.7614 120 89Z" fill="#00C2FF" fill-opacity="0.062"/>
<path d="M150 89C150 86.2386 152.239 84 155 84C157.761 84 160 86.2386 160 89C160 91.7614 157.761 94 155 94C152.239 94 150 91.7614 150 89Z" fill="#00C2FF" fill-opacity="0.062"/>
<path d="M120 117C120 114.239 122.239 112 125 112C127.761 112 130 114.239 130 117C130 119.761 127.761 122 125 122C122.239 122 120 119.761 120 117Z" fill="#00C2FF" fill-opacity="0.062"/>
<path d="M150 117C150 114.239 152.239 112 155 112C157.761 112 160 114.239 160 117C160 119.761 157.761 122 155 122C152.239 122 150 119.761 150 117Z" fill="#00C2FF" fill-opacity="0.062"/>
<path d="M120 145C120 142.239 122.239 140 125 140C127.761 140 130 142.239 130 145C130 147.761 127.761 150 125 150C122.239 150 120 147.761 120 145Z" fill="#00C2FF" fill-opacity="0.062"/>
<path d="M150 145C150 142.239 152.239 140 155 140C157.761 140 160 142.239 160 145C160 147.761 157.761 150 155 150C152.239 150 150 147.761 150 145Z" fill="#00C2FF" fill-opacity="0.062"/>
<path d="M120 173C120 170.239 122.239 168 125 168C127.761 168 130 170.239 130 173C130 175.761 127.761 178 125 178C122.239 178 120 175.761 120 173Z" fill="#00C2FF" fill-opacity="0.062"/>
<path d="M150 173C150 170.239 152.239 168 155 168C157.761 168 160 170.239 160 173C160 175.761 157.761 178 155 178C152.239 178 150 175.761 150 173Z" fill="#00C2FF" fill-opacity="0.062"/>
<path d="M120 201C120 198.239 122.239 196 125 196C127.761 196 130 198.239 130 201C130 203.761 127.761 206 125 206C122.239 206 120 203.761 120 201Z" fill="#00C2FF" fill-opacity="0.062"/>
<path d="M150 201C150 198.239 152.239 196 155 196C157.761 196 160 198.239 160 201C160 203.761 157.761 206 155 206C152.239 206 150 203.761 150 201Z" fill="#00C2FF" fill-opacity="0.062"/>
</svg>
